<svg xmlns="http://www.w3.org/2000/svg" xmlns:xlink="http://www.w3.org/1999/xlink" preserveAspectRatio="xMidYMid" width="49" height="19" viewBox="0 0 49 19">
  <defs>
    <style>
      .cls-1 {
        fill: #000;
        fill-rule: evenodd;
      }
    </style>
  </defs>
  <path d="M46.000,12.950 L46.000,6.050 C47.694,6.295 49.000,7.738 49.000,9.500 C49.000,11.262 47.694,12.705 46.000,12.950 ZM42.000,19.000 L3.000,19.000 C1.343,19.000 0.000,17.657 0.000,16.000 L0.000,3.000 C0.000,1.343 1.343,-0.000 3.000,-0.000 L42.000,-0.000 C43.657,-0.000 45.000,1.343 45.000,3.000 L45.000,16.000 C45.000,17.657 43.657,19.000 42.000,19.000 ZM44.000,3.000 C44.000,1.895 43.105,1.000 42.000,1.000 L3.000,1.000 C1.895,1.000 1.000,1.895 1.000,3.000 L1.000,16.000 C1.000,17.105 1.895,18.000 3.000,18.000 L42.000,18.000 C43.105,18.000 44.000,17.105 44.000,16.000 L44.000,3.000 ZM3.000,17.000 C2.448,17.000 2.000,16.552 2.000,16.000 L2.000,3.000 C2.000,2.448 2.448,2.000 3.000,2.000 L35.000,2.000 L35.000,17.000 L3.000,17.000 Z" class="cls-1"/>
</svg>
